<?xml version="1.0" encoding="utf-8"?>
<!-- Generator: Adobe Illustrator 25.3.1, SVG Export Plug-In . SVG Version: 6.00 Build 0)  -->
<svg version="1.0" id="Layer_1" xmlns="http://www.w3.org/2000/svg" xmlns:xlink="http://www.w3.org/1999/xlink" x="0px" y="0px"
	 width="100px" height="100px" viewBox="0 0 100 100" enable-background="new 0 0 100 100" xml:space="preserve">
<polygon fill="#010101" points="-50,-18.8 -50,18.8 -43.7,18.8 -43.7,25 -37.5,25 -37.5,37.5 -31.3,37.5 -31.3,43.7 -25,43.7 
	-25,50 25,50 25,43.7 31.3,43.7 31.3,37.5 37.5,37.5 37.5,25 43.7,25 43.7,18.8 50,18.8 50,-18.8 43.7,-18.8 43.7,-25 37.5,-25 
	37.5,-31.3 31.3,-31.3 31.3,-37.5 25,-37.5 25,-43.7 12.5,-43.7 12.5,-50 -12.5,-50 -12.5,-43.7 -25,-43.7 -25,-37.5 -31.3,-37.5 
	-31.3,-31.3 -37.5,-31.3 -37.5,-25 -43.7,-25 -43.7,-18.8 "/>
<polygon fill="#C1282D" points="-43.7,18.8 -31.3,18.8 -31.3,12.5 31.3,12.5 31.3,18.8 43.7,18.8 43.7,-12.5 37.5,-12.5 37.5,-25 
	31.3,-25 31.3,-31.3 25,-31.3 25,-37.5 12.5,-37.5 12.5,-43.7 -12.5,-43.7 -12.5,-37.5 -25,-37.5 -25,-31.3 -31.3,-31.3 -31.3,-25 
	-37.5,-25 -37.5,-12.5 -43.7,-12.5 "/>
<polygon fill="#FFFFFF" points="-31.2,25 -31.2,37.5 -25,37.5 -25,43.7 25,43.7 25,37.5 31.3,37.5 31.3,25 25,25 25,18.8 12.5,18.8 
	12.5,31.3 6.3,31.3 6.3,18.8 -6.2,18.8 -6.2,31.3 -12.5,31.3 -12.5,18.8 -25,18.8 -25,25 "/>
<polygon fill="#FFFFFF" points="-31.3,-31.3 -31.3,-18.8 -25,-18.8 -25,0 -31.3,0 -31.3,6.2 -43.7,6.2 -43.7,18.8 -31.3,18.8 
	-31.3,12.5 -12.5,12.5 -12.5,6.2 -18.8,6.2 -18.8,-12.5 -12.5,-12.5 -12.5,-18.8 12.5,-18.8 12.5,-12.5 18.8,-12.5 18.8,6.2 
	12.5,6.2 12.5,12.5 31.3,12.5 31.3,18.8 43.7,18.8 43.7,6.2 37.5,6.2 31.3,6.2 31.3,0 25,0 25,-18.8 31.3,-18.8 31.3,-25 
	31.3,-31.3 25,-31.3 25,-25 12.5,-25 12.5,-31.3 6.2,-31.3 6.2,-43.7 -6.2,-43.7 -6.2,-31.3 -12.5,-31.3 -12.5,-25 -25,-25 
	-25,-31.3 "/>
</svg>
