<svg id="Layer_1" data-name="Layer 1" xmlns="http://www.w3.org/2000/svg" viewBox="0 0 571.2 184.52"><title>ccLogoTextColor</title><path d="M421.24,191.07H397.08v80.28h7V198h17.19a10.46,10.46,0,0,1,10.45,10.45v14.94h0c0,2.22-2.39,4.35-5.2,4.35H410v6.9h16.49c2.81,0,5.2,2.13,5.2,4.35v32.33h7V239c0-2.9-1.7-6.39-4.18-7.76,2.73-1.45,4.18-4.86,4.18-7.84V208.48A17.43,17.43,0,0,0,421.24,191.07Z" transform="translate(-135.34 -189.46)"/><path d="M565.85,191.11H545.07a7,7,0,0,0,7,7h10.34v73.34h7V198.07h10.34a7,7,0,0,0,7-7H565.85Z" transform="translate(-135.34 -189.46)"/><path d="M595,198.07h0v66.37h0v7h7v-80.3A7,7,0,0,0,595,198.07Z" transform="translate(-135.34 -189.46)"/><path d="M651.08,196.3l-15.84,61.2-15.83-61.19a7,7,0,0,0-6.75-5.22h-1.8l20.76,80.25h7.23l20.77-80.27h-1.81A7,7,0,0,0,651.08,196.3Z" transform="translate(-135.34 -189.46)"/><path d="M353.68,324.44V309.5A10.46,10.46,0,0,1,364.13,299h17.19a7,7,0,0,0,7-7H364.13a17.43,17.43,0,0,0-17.42,17.42v14.94c0,2.22-2.39,4.35-5.2,4.35v6.9c2.81,0,5.2,2.13,5.2,4.35v14.91a17.43,17.43,0,0,0,17.42,17.42h24.16a7,7,0,0,0-7-7H364.13a10.46,10.46,0,0,1-10.45-10.45V340h0c0-2.89-1.71-6.37-4.18-7.72C352.23,330.83,353.68,327.42,353.68,324.44Z" transform="translate(-135.34 -189.46)"/><path d="M493.07,299.1h0v73.34h7v-80.3A7,7,0,0,0,493.07,299.1Z" transform="translate(-135.34 -189.46)"/><path d="M551.25,344.94V292.09h-7v64.25h0l-25-58.3-2.54-5.91a7,7,0,0,0-7,7h0v73.34h7V308l27.53,64.43h7v-7h0Z" transform="translate(-135.34 -189.46)"/><path d="M292.84,216.48a92,92,0,1,0,19.77,29.32A91.94,91.94,0,0,0,292.84,216.48Zm13.35,98.43a85.59,85.59,0,1,1,6.7-33.2A85,85,0,0,1,306.19,314.92Z" transform="translate(-135.34 -189.46)" style="fill:#00bdff"/><path d="M584.09,372.4h-7A17.43,17.43,0,0,1,559.93,355v-6.57h0v-38.9a17.43,17.43,0,0,1,17.42-17.42h15.54a7,7,0,0,1-7,7h-8.57a10.46,10.46,0,0,0-10.45,10.45v14.94h0V340h0V355a10.46,10.46,0,0,0,10.45,10.45h6.75A10.46,10.46,0,0,0,594.54,355V339.27h-9.06a7,7,0,0,1-7-7h16a7,7,0,0,1,7,6.9h0v.06h0V355A17.43,17.43,0,0,1,584.09,372.4Z" transform="translate(-135.34 -189.46)"/><path d="M466.81,292.1H449.4l-7,0V372.4l7,0h17.41A17.43,17.43,0,0,0,484,354.94V309.51A17.43,17.43,0,0,0,466.81,292.1ZM477,354.94a10.46,10.46,0,0,1-10.45,10.45H449.4V299.06h17.19A10.46,10.46,0,0,1,477,309.51Z" transform="translate(-135.34 -189.46)"/><path d="M434.51,309.51a17.43,17.43,0,0,0-17.19-17.41h-7a17.43,17.43,0,0,0-17.42,17.42V355a17.43,17.43,0,0,0,17.19,17.41h7A17.43,17.43,0,0,0,434.51,355V309.51Zm-7,45.47a10.46,10.46,0,0,1-10.45,10.45h-6.74A10.46,10.46,0,0,1,399.9,355V309.51a10.46,10.46,0,0,1,10.45-10.45h6.74a10.46,10.46,0,0,1,10.45,10.45V355Z" transform="translate(-135.34 -189.46)"/><path d="M522.45,191.11h-6.74a17.43,17.43,0,0,0-17.42,17.42v62.87h7V234.71H532.9v36.68h7V208.52A17.43,17.43,0,0,0,522.45,191.11Zm10.45,36.7H505.26v-4.35h0V208.52a10.46,10.46,0,0,1,10.45-10.45h6.74a10.46,10.46,0,0,1,10.45,10.45v14.94h0Z" transform="translate(-135.34 -189.46)"/><path d="M665,239.06c0-3,1.45-6.39,4.18-7.84-2.47-1.36-4.18-4.86-4.18-7.76V208.52a17.43,17.43,0,0,1,17.42-17.42h24.16a7,7,0,0,1-7,7H682.39a10.46,10.46,0,0,0-10.45,10.45v14.94c0,2.22,2.39,4.35,5.2,4.35h16.49v6.9H677.14c-2.81,0-5.2,2.13-5.2,4.35V254a10.46,10.46,0,0,0,10.45,10.45h17.19a7,7,0,0,1,7,7H682.39A17.43,17.43,0,0,1,665,254Z" transform="translate(-135.34 -189.46)"/><path d="M449.08,239.06c0-3,1.45-6.39,4.18-7.84-2.47-1.36-4.18-4.86-4.18-7.76V208.52a17.43,17.43,0,0,1,17.42-17.42h24.16a7,7,0,0,1-7,7H466.49A10.46,10.46,0,0,0,456,208.52v14.94c0,2.22,2.39,4.35,5.2,4.35h16.49v6.9H461.24c-2.81,0-5.2,2.13-5.2,4.35V254a10.46,10.46,0,0,0,10.45,10.45h17.19a7,7,0,0,1,7,7H466.5A17.43,17.43,0,0,1,449.08,254Z" transform="translate(-135.34 -189.46)"/><path d="M353.68,223.45V208.51a10.46,10.46,0,0,1,10.45-10.45h17.19a7,7,0,0,0,7-7H364.13a17.43,17.43,0,0,0-17.42,17.42v14.94c0,2.22-2.39,4.35-5.2,4.35v6.9c2.81,0,5.2,2.13,5.2,4.35V254a17.43,17.43,0,0,0,17.42,17.42h24.16a7,7,0,0,0-7-7H364.13A10.46,10.46,0,0,1,353.68,254V239h0c0-2.89-1.71-6.37-4.18-7.72C352.23,229.84,353.68,226.43,353.68,223.45Z" transform="translate(-135.34 -189.46)"/><path d="M190.38,274V259a10.46,10.46,0,0,1,10.45-10.45H218a7,7,0,0,0,7-7H200.83A17.43,17.43,0,0,0,183.41,259V274c0,2.22-2.39,4.35-5.2,4.35v6.9c2.81,0,5.2,2.13,5.2,4.35v14.91a17.43,17.43,0,0,0,17.42,17.42H225a7,7,0,0,0-7-7H200.83a10.46,10.46,0,0,1-10.45-10.45V289.55h0c0-2.89-1.71-6.37-4.18-7.72C188.93,280.37,190.38,277,190.38,274Z" transform="translate(-135.34 -189.46)" style="fill:#00bdff"/><path d="M264.48,274V259A10.46,10.46,0,0,0,254,248.59H236.83a7,7,0,0,1-7-7H254A17.43,17.43,0,0,1,271.44,259V274c0,2.22,2.39,4.35,5.2,4.35v6.9c-2.81,0-5.2,2.13-5.2,4.35v14.91A17.43,17.43,0,0,1,254,321.9H229.87a7,7,0,0,1,7-7H254a10.46,10.46,0,0,0,10.45-10.45V289.55h0c0-2.89,1.71-6.37,4.18-7.72C265.92,280.37,264.48,277,264.48,274Z" transform="translate(-135.34 -189.46)" style="fill:#00bdff"/></svg>