<svg id="Layer_1" data-name="Layer 1" xmlns="http://www.w3.org/2000/svg" viewBox="0 0 184.52 184.52"><title>ccLogo</title><path d="M363.84,355.48a92,92,0,1,0,19.77,29.32A91.94,91.94,0,0,0,363.84,355.48Zm13.35,98.43a85.59,85.59,0,1,1,6.7-33.2A85,85,0,0,1,377.19,453.92Z" transform="translate(-206.34 -328.46)" style="fill:#41b9ea"/><path d="M261.38,413V398a10.46,10.46,0,0,1,10.45-10.45H289a7,7,0,0,0,7-7H271.83A17.43,17.43,0,0,0,254.41,398V413c0,2.22-2.39,4.35-5.2,4.35v6.9c2.81,0,5.2,2.13,5.2,4.35v14.91a17.43,17.43,0,0,0,17.42,17.42H296a7,7,0,0,0-7-7H271.83a10.46,10.46,0,0,1-10.45-10.45V428.55h0c0-2.89-1.71-6.37-4.18-7.72C259.93,419.37,261.38,416,261.38,413Z" transform="translate(-206.34 -328.46)" style="fill:#41b9ea"/><path d="M335.48,413V398A10.46,10.46,0,0,0,325,387.59H307.83a7,7,0,0,1-7-7H325A17.43,17.43,0,0,1,342.44,398V413c0,2.22,2.39,4.35,5.2,4.35v6.9c-2.81,0-5.2,2.13-5.2,4.35v14.91A17.43,17.43,0,0,1,325,460.9H300.87a7,7,0,0,1,7-7H325a10.46,10.46,0,0,0,10.45-10.45V428.55h0c0-2.89,1.71-6.37,4.18-7.72C336.92,419.37,335.48,416,335.48,413Z" transform="translate(-206.34 -328.46)" style="fill:#41b9ea"/></svg>