<?xml version="1.0" encoding="utf-8"?>
<!-- Generator: Adobe Illustrator 21.1.0, SVG Export Plug-In . SVG Version: 6.00 Build 0)  -->
<svg version="1.1" id="Layer_1" xmlns="http://www.w3.org/2000/svg" xmlns:xlink="http://www.w3.org/1999/xlink" x="0px" y="0px"
	 viewBox="0 0 137.5 57.6" enable-background="new 0 0 137.5 57.6" xml:space="preserve">
<g>
	<path fill="#F20FC7" d="M136.9,17.6c-1-1.2-2.7-1.3-3.9-0.3c-0.1,0.1-10.2,8.5-18.9,8.5c-1.7,0-3.2,0.4-4.5,1.2
		c-0.7,0.4-1.3,0.9-2,1.5c-2.6,2.4-4.6,6.1-6.6,9.7c-3.1,5.6-6.3,11.4-10.8,11.4c-1.9,0-3.5-1.9-4.6-3.9c1-1.7,2-3.5,3-5.5
		c4.2-8.8,7-19.3,7-26.7c0-3.3-0.5-6-1.6-7.9c-1.4-2.6-3.7-4-6.5-4S80.9,3,78.4,9.8c-1.5,4-2.3,9.5-2.3,15.5c0,7,1.1,14.1,3.1,19.3
		c0.1,0.2,0.2,0.4,0.2,0.6c-2.7,3.7-5.3,5.9-7.5,5.9c-2.4,0-5.1-3.3-7.1-8.9c0-0.1,0-0.1-0.1-0.2c0.8-1.3,1.5-2.6,2-3.7
		c4.5-8.9,7.5-19.5,7.5-27.1c0-3.2-0.5-5.7-1.5-7.6C71.4,1.4,69.2,0,66.5,0c-2.6,0-6.1,1.3-8.3,7.4c-1.3,3.6-2,8.6-2,14.2
		c0,6.7,1,13.9,2.7,19.8c-3.5,5.2-7.2,8.2-10.2,8.2c-2.1,0-3.8-0.7-5.2-1.8c0.3-0.4,0.6-0.8,1-1.2c4-5.3,6.5-11.3,6.5-15.7
		c0-2.1-0.6-3.9-1.7-5.2c-0.9-1-2.5-2.3-5.4-2.3c-3.4,0-6.3,1.5-8.2,4.3c-1.6,2.3-2.4,5.4-2.4,8.8c0,3.8,1,7.7,2.9,10.9
		c-2.2,1.9-4.5,3-6.3,3c-1.3,0-1.7-0.4-1.8-0.6c-1.3-1.4-1.2-5.7-1.1-9.2c0-4.6,0.2-9.6-2.6-12.5C23.1,26.7,21.3,26,19,26
		c-2.8,0-5.4,1.7-8.1,5.1c-1.3,1.6-2.5,3.6-3.8,6l3-33.9c0.1-1.5-1-2.8-2.5-3c-1.5-0.1-2.8,1-3,2.5L0,54.6c-0.1,1.4,0.8,2.7,2.2,2.9
		c0.2,0,0.4,0.1,0.5,0.1c1.2,0,2.3-0.8,2.6-1.9c0-0.1,2-6.4,5-12.7c5.2-11.1,8.4-11.4,8.7-11.4c1,0,1.3,0.3,1.4,0.4
		c1.2,1.2,1.1,5.4,1,8.7c-0.1,5-0.3,10.1,2.7,13.1c1.4,1.5,3.4,2.2,5.8,2.2c3.1,0,6.5-1.5,9.8-4.2c2.4,2.1,5.4,3.4,9,3.4
		c4.9,0,9.1-3.5,12.5-7.6c3.5,7.4,7.7,9.1,10.8,9.1c3.2,0,6.4-1.7,9.5-5.2c0.3-0.3,0.5-0.6,0.8-0.9c2.7,3.6,5.7,4.5,8,4.5
		c5.8,0,9.5-4.2,12.6-9.1c0.4,2,1.2,3.8,2.3,5.3c2.2,2.9,5.4,4.5,9.4,4.5c3.6,0,6.8-1.8,9-5.1c1.8-2.7,2.7-6.2,2.7-10s-1-7.3-2.8-10
		c-0.3-0.4-0.6-0.8-0.9-1.2c7.5-2.7,13.7-7.9,14-8.2C137.7,20.5,137.9,18.7,136.9,17.6z M38.7,36.6c0-1.3,0.2-7.7,5.1-7.7
		c0.4,0,1,0,1.3,0.3c0.1,0.1,0.4,0.5,0.4,1.6c0,3.2-2.2,8.1-5.4,12.3C39.2,41.1,38.7,38.7,38.7,36.6z M61.6,21.7
		c0-5,0.6-9.4,1.7-12.4c0.5-1.4,1.6-3.8,3.2-3.8c0.6,0,1.1,0.2,1.5,1c0.4,0.7,0.9,2.2,0.9,5c0,6.2-2.4,15.2-6.1,22.9
		C62,30.3,61.6,25.9,61.6,21.7z M83.7,38c-0.2,0.4-0.4,0.7-0.5,1.1c-1-4.1-1.6-8.8-1.6-13.7c0-5.4,0.7-10.2,2-13.6
		c0.6-1.7,2-4.6,4-4.6c0.7,0,1.2,0.2,1.7,1.1c0.4,0.8,0.9,2.4,0.9,5.3C90.1,20.3,87.6,29.8,83.7,38z M114.6,50.4
		c-2.2,0-3.8-0.7-5-2.3c-1.1-1.4-1.6-3.6-1.6-6c0-5.6,3-10.8,6.1-10.8c5.3,0,6.7,6,6.7,9.5C120.8,47.8,117.1,50.4,114.6,50.4z"/>
	<path fill="#F20FC7" d="M134.1,50.5c-1.2-1-2.9-0.8-3.9,0.3l0,0c-1,1.2-0.8,2.9,0.3,3.9c0.5,0.4,1.1,0.6,1.8,0.6
		c0.8,0,1.6-0.3,2.1-1l0,0C135.5,53.2,135.3,51.4,134.1,50.5z"/>
</g>
</svg>
