0
SECTION
2
ENTITIES
0
3DFACE
8
0
10
347.5
20
700.0
30
0.0
11
347.55463
21
499.48022
31
0.0
12
347.55463
22
700.5198
32
0.0
13
347.55472
23
700.5199
33
1.0E-4
0
3DFACE
8
0
10
347.97748
20
498.53055
30
0.0
11
347.55463
21
700.5198
31
0.0
12
347.55463
22
499.48022
32
0.0
13
347.55472
23
499.48032
33
1.0E-4
0
3DFACE
8
0
10
347.55463
20
700.5198
30
0.0
11
347.97748
21
498.53055
31
0.0
12
347.97748
22
701.4695
32
0.0
13
347.97757
23
701.4696
33
1.0E-4
0
3DFACE
8
0
10
348.75
20
497.83496
30
0.0
11
347.97748
21
701.4695
31
0.0
12
347.97748
22
498.53055
32
0.0
13
347.97757
23
498.53064
33
1.0E-4
0
3DFACE
8
0
10
347.97748
20
701.4695
30
0.0
11
348.75
21
497.83496
31
0.0
12
348.75
22
702.16504
32
0.0
13
348.7501
23
702.16516
33
1.0E-4
0
3DFACE
8
0
10
349.7387
20
497.5137
30
0.0
11
348.75
21
702.16504
31
0.0
12
348.75
22
497.83496
32
0.0
13
348.7501
23
497.83505
33
1.0E-4
0
3DFACE
8
0
10
348.75
20
702.16504
30
0.0
11
349.7387
21
497.5137
31
0.0
12
349.7387
22
702.4863
32
0.0
13
349.7388
23
702.48645
33
1.0E-4
0
3DFACE
8
0
10
350.77252
20
497.62238
30
0.0
11
349.7387
21
702.4863
31
0.0
12
349.7387
22
497.5137
32
0.0
13
349.7388
23
497.5138
33
1.0E-4
0
3DFACE
8
0
10
349.7387
20
702.4863
30
0.0
11
350.77252
21
497.62238
31
0.0
12
350.77252
22
702.3776
32
0.0
13
350.7726
23
702.37775
33
1.0E-4
0
3DFACE
8
0
10
351.67282
20
498.14215
30
0.0
11
350.77252
21
702.3776
31
0.0
12
350.77252
22
497.62238
32
0.0
13
350.7726
23
497.62247
33
1.0E-4
0
3DFACE
8
0
10
350.77252
20
702.3776
30
0.0
11
351.67282
21
498.14215
31
0.0
12
351.67282
22
701.85785
32
0.0
13
351.6729
23
701.858
33
1.0E-4
0
3DFACE
8
0
10
352.28387
20
498.98315
30
0.0
11
351.67282
21
701.85785
31
0.0
12
351.67282
22
498.14215
32
0.0
13
351.6729
23
498.14224
33
1.0E-4
0
3DFACE
8
0
10
351.67282
20
701.85785
30
0.0
11
352.28387
21
498.98315
31
0.0
12
352.28387
22
701.01685
32
0.0
13
352.28397
23
701.01697
33
1.0E-4
0
3DFACE
8
0
10
352.5
20
500.0
30
0.0
11
352.28387
21
701.01685
31
0.0
12
352.28387
22
498.98315
32
0.0
13
352.28397
23
498.98325
33
1.0E-4
0
3DFACE
8
0
10
352.28387
20
701.01685
30
0.0
11
352.5
21
500.0
31
0.0
12
352.5
22
700.0
32
0.0
13
352.5001
23
700.0001
33
1.0E-4
0
3DFACE
8
0
10
347.55463
20
499.48022
30
0.0
11
347.5
21
700.0
31
0.0
12
347.5
22
500.0
32
0.0
13
347.5001
23
500.0001
33
1.0E-4
0
3DFACE
8
0
10
351.73206
20
499.0
30
0.0
11
352.0
21
500.0
31
0.0
12
351.73206
22
501.0
32
0.0
13
351.73215
23
501.0001
33
1.0E-4
0
3DFACE
8
0
10
351.73206
20
499.0
30
0.0
11
351.73206
21
501.0
31
0.0
12
351.0
22
501.73206
32
0.0
13
351.0001
23
501.73215
33
1.0E-4
0
3DFACE
8
0
10
351.73206
20
499.0
30
0.0
11
351.0
21
501.73206
31
0.0
12
350.0
22
502.0
32
0.0
13
350.0001
23
502.0001
33
1.0E-4
0
3DFACE
8
0
10
351.73206
20
499.0
30
0.0
11
350.0
21
502.0
31
0.0
12
349.0
22
501.73206
32
0.0
13
349.0001
23
501.73215
33
1.0E-4
0
3DFACE
8
0
10
351.73206
20
499.0
30
0.0
11
349.0
21
501.73206
31
0.0
12
348.26794
22
501.0
32
0.0
13
348.26804
23
501.0001
33
1.0E-4
0
3DFACE
8
0
10
351.73206
20
499.0
30
0.0
11
348.26794
21
501.0
31
0.0
12
285.73206
22
384.68463
32
0.0
13
285.73215
23
384.68472
33
1.0E-4
0
3DFACE
8
0
10
348.26794
20
501.0
30
0.0
11
282.26794
21
386.68463
31
0.0
12
283.0
22
383.95258
32
0.0
13
283.0001
23
383.95267
33
1.0E-4
0
3DFACE
8
0
10
348.26794
20
501.0
30
0.0
11
283.0
21
383.95258
31
0.0
12
284.0
22
383.68463
32
0.0
13
284.0001
23
383.68472
33
1.0E-4
0
3DFACE
8
0
10
348.26794
20
501.0
30
0.0
11
284.0
21
383.68463
31
0.0
12
285.0
22
383.95258
32
0.0
13
285.0001
23
383.95267
33
1.0E-4
0
3DFACE
8
0
10
348.26794
20
501.0
30
0.0
11
285.0
21
383.95258
31
0.0
12
285.73206
22
384.68463
32
0.0
13
285.73215
23
384.68472
33
1.0E-4
0
3DFACE
8
0
10
282.26794
20
386.68463
30
0.0
11
282.0
21
385.68463
31
0.0
12
282.26794
22
384.68463
32
0.0
13
282.26804
23
384.68472
33
1.0E-4
0
3DFACE
8
0
10
282.26794
20
386.68463
30
0.0
11
282.26794
21
384.68463
31
0.0
12
283.0
22
383.95258
32
0.0
13
283.0001
23
383.95267
33
1.0E-4
0
3DFACE
8
0
10
285.14905
20
386.6488
30
0.0
11
284.26047
21
387.16183
31
0.0
12
284.75
22
384.38562
32
0.0
13
284.7501
23
384.3857
33
1.0E-4
0
3DFACE
8
0
10
285.14905
20
386.6488
30
0.0
11
284.75
21
384.38562
31
0.0
12
285.14905
22
384.72046
32
0.0
13
285.14914
23
384.72055
33
1.0E-4
0
3DFACE
8
0
10
285.14905
20
386.6488
30
0.0
11
285.14905
21
384.72046
31
0.0
12
285.5
22
385.68463
32
0.0
13
285.5001
23
385.68472
33
1.0E-4
0
3DFACE
8
0
10
283.25
20
386.98364
30
0.0
11
207.80188
21
343.42365
31
0.0
12
208.81235
22
340.64743
32
0.0
13
208.81245
23
340.64752
33
1.0E-4
0
3DFACE
8
0
10
283.25
20
386.98364
30
0.0
11
208.81235
21
340.64743
31
0.0
12
209.30188
22
340.82562
32
0.0
13
209.30199
23
340.8257
33
1.0E-4
0
3DFACE
8
0
10
283.25
20
386.98364
30
0.0
11
209.30188
21
340.82562
31
0.0
12
284.75
22
384.38562
32
0.0
13
284.7501
23
384.3857
33
1.0E-4
0
3DFACE
8
0
10
283.25
20
386.98364
30
0.0
11
284.75
21
384.38562
31
0.0
12
284.26047
22
387.16183
32
0.0
13
284.26056
23
387.16193
33
1.0E-4
0
3DFACE
8
0
10
207.80188
20
340.82562
30
0.0
11
208.81235
21
340.64743
31
0.0
12
207.80188
22
343.42365
32
0.0
13
207.80199
23
343.42374
33
1.0E-4
0
3DFACE
8
0
10
207.80188
20
340.82562
30
0.0
11
207.80188
21
343.42365
31
0.0
12
207.14235
22
342.63763
32
0.0
13
207.14246
23
342.63773
33
1.0E-4
0
3DFACE
8
0
10
207.80188
20
340.82562
30
0.0
11
207.14235
21
342.63763
31
0.0
12
207.14235
22
341.61163
32
0.0
13
207.14246
23
341.61172
33
1.0E-4
0
3DFACE
8
0
10
150.05267
20
342.12463
30
0.0
11
150.55267
21
341.2586
31
0.0
12
150.55269
22
342.99066
32
0.0
13
150.5528
23
342.99075
33
1.0E-4
0
3DFACE
8
0
10
151.05267
20
341.12463
30
0.0
11
150.55269
21
342.99066
31
0.0
12
150.55267
22
341.2586
32
0.0
13
150.55278
23
341.2587
33
1.0E-4
0
3DFACE
8
0
10
150.55269
20
342.99066
30
0.0
11
151.05267
21
341.12463
31
0.0
12
151.05267
22
343.12463
32
0.0
13
151.05278
23
343.12473
33
1.0E-4
0
3DFACE
8
0
10
208.55188
20
341.12463
30
0.0
11
151.05267
21
343.12463
31
0.0
12
151.05267
22
341.12463
32
0.0
13
151.05278
23
341.12473
33
1.0E-4
0
3DFACE
8
0
10
151.05267
20
343.12463
30
0.0
11
208.55188
21
341.12463
31
0.0
12
208.55188
22
343.12463
32
0.0
13
208.55199
23
343.12473
33
1.0E-4
0
3DFACE
8
0
10
209.05188
20
341.2586
30
0.0
11
208.55188
21
343.12463
31
0.0
12
208.55188
22
341.12463
32
0.0
13
208.55199
23
341.12473
33
1.0E-4
0
3DFACE
8
0
10
208.55188
20
343.12463
30
0.0
11
209.05188
21
341.2586
31
0.0
12
209.05188
22
342.99066
32
0.0
13
209.05199
23
342.99075
33
1.0E-4
0
3DFACE
8
0
10
209.55188
20
342.12463
30
0.0
11
209.05188
21
342.99066
31
0.0
12
209.05188
22
341.2586
32
0.0
13
209.05199
23
341.2587
33
1.0E-4
0
3DFACE
8
0
10
151.23567
20
341.44162
30
0.0
11
151.73567
21
342.30765
31
0.0
12
118.00443
22
361.78238
32
0.0
13
118.00453
23
361.78247
33
1.0E-4
0
3DFACE
8
0
10
118.00443
20
361.78238
30
0.0
11
151.23567
21
341.44162
31
0.0
12
117.50443
22
360.91635
32
0.0
13
117.50453
23
360.91644
33
1.0E-4
0
3DFACE
8
0
10
151.73567
20
341.94162
30
0.0
11
151.23567
21
342.80765
31
0.0
12
117.50443
22
323.33292
32
0.0
13
117.50453
23
323.333
33
1.0E-4
0
3DFACE
8
0
10
117.50443
20
323.33292
30
0.0
11
151.73567
21
341.94162
31
0.0
12
118.00443
22
322.4669
32
0.0
13
118.00453
23
322.46698
33
1.0E-4
0
3DFACE
8
0
10
209.4179
20
341.62463
30
0.0
11
209.55188
21
342.12463
31
0.0
12
209.05188
22
342.99066
32
0.0
13
209.05199
23
342.99075
33
1.0E-4
0
3DFACE
8
0
10
209.4179
20
341.62463
30
0.0
11
209.05188
21
342.99066
31
0.0
12
208.0519
22
342.99066
32
0.0
13
208.052
23
342.99075
33
1.0E-4
0
3DFACE
8
0
10
209.4179
20
341.62463
30
0.0
11
208.0519
21
342.99066
31
0.0
12
207.68587
22
342.62463
32
0.0
13
207.68597
23
342.62473
33
1.0E-4
0
3DFACE
8
0
10
209.4179
20
341.62463
30
0.0
11
207.68587
21
342.62463
31
0.0
12
180.66829
22
291.82886
32
0.0
13
180.6684
23
291.82895
33
1.0E-4
0
3DFACE
8
0
10
207.68587
20
342.62463
30
0.0
11
178.93626
21
292.82886
31
0.0
12
179.30228
22
291.46283
32
0.0
13
179.30238
23
291.46292
33
1.0E-4
0
3DFACE
8
0
10
207.68587
20
342.62463
30
0.0
11
179.30228
21
291.46283
31
0.0
12
180.30228
22
291.46283
32
0.0
13
180.30238
23
291.46292
33
1.0E-4
0
3DFACE
8
0
10
207.68587
20
342.62463
30
0.0
11
180.30228
21
291.46283
31
0.0
12
180.66829
22
291.82886
32
0.0
13
180.6684
23
291.82895
33
1.0E-4
0
3DFACE
8
0
10
179.30228
20
291.46283
30
0.0
11
178.93626
21
292.82886
31
0.0
12
178.80228
22
292.32886
32
0.0
13
178.80238
23
292.32895
33
1.0E-4
0
3DFACE
8
0
10
180.48528
20
292.14584
30
0.0
11
179.98528
21
293.01187
31
0.0
12
146.25403
22
273.53714
32
0.0
13
146.25414
23
273.53723
33
1.0E-4
0
3DFACE
8
0
10
146.25403
20
273.53714
30
0.0
11
180.48528
21
292.14584
31
0.0
12
146.75403
22
272.6711
32
0.0
13
146.75414
23
272.6712
33
1.0E-4
0
3DFACE
8
0
10
181.0
20
293.0
30
0.0
11
180.0
21
293.0
31
0.0
12
180.0
22
254.0
32
0.0
13
180.0001
23
254.0001
33
1.0E-4
0
3DFACE
8
0
10
180.0
20
254.0
30
0.0
11
181.0
21
293.0
31
0.0
12
181.0
22
254.0
32
0.0
13
181.0001
23
254.0001
33
1.0E-4
0
3DFACE
8
0
10
282.5
20
385.68463
30
0.0
11
282.59045
21
298.05164
31
0.0
12
282.59045
22
386.19763
32
0.0
13
282.59055
23
386.19772
33
1.0E-4
0
3DFACE
8
0
10
283.25
20
297.26562
30
0.0
11
282.59045
21
386.19763
31
0.0
12
282.59045
22
298.05164
32
0.0
13
282.59055
23
298.05173
33
1.0E-4
0
3DFACE
8
0
10
282.59045
20
386.19763
30
0.0
11
283.25
21
297.26562
31
0.0
12
283.25
22
386.98364
32
0.0
13
283.2501
23
386.98373
33
1.0E-4
0
3DFACE
8
0
10
284.26047
20
297.08743
30
0.0
11
283.25
21
386.98364
31
0.0
12
283.25
22
297.26562
32
0.0
13
283.2501
23
297.26572
33
1.0E-4
0
3DFACE
8
0
10
283.25
20
386.98364
30
0.0
11
284.26047
21
297.08743
31
0.0
12
284.26047
22
387.16183
32
0.0
13
284.26056
23
387.16193
33
1.0E-4
0
3DFACE
8
0
10
285.14905
20
297.60046
30
0.0
11
284.26047
21
387.16183
31
0.0
12
284.26047
22
297.08743
32
0.0
13
284.26056
23
297.08752
33
1.0E-4
0
3DFACE
8
0
10
284.26047
20
387.16183
30
0.0
11
285.14905
21
297.60046
31
0.0
12
285.14905
22
386.6488
32
0.0
13
285.14914
23
386.6489
33
1.0E-4
0
3DFACE
8
0
10
285.5
20
298.56464
30
0.0
11
285.14905
21
386.6488
31
0.0
12
285.14905
22
297.60046
32
0.0
13
285.14914
23
297.60056
33
1.0E-4
0
3DFACE
8
0
10
285.14905
20
386.6488
30
0.0
11
285.5
21
298.56464
31
0.0
12
285.5
22
385.68463
32
0.0
13
285.5001
23
385.68472
33
1.0E-4
0
3DFACE
8
0
10
282.59045
20
298.05164
30
0.0
11
282.5
21
385.68463
31
0.0
12
282.5
22
298.56464
32
0.0
13
282.5001
23
298.56473
33
1.0E-4
0
3DFACE
8
0
10
284.86603
20
298.06464
30
0.0
11
285.0
21
298.56464
31
0.0
12
284.5
22
299.43066
32
0.0
13
284.5001
23
299.43076
33
1.0E-4
0
3DFACE
8
0
10
284.86603
20
298.06464
30
0.0
11
284.5
21
299.43066
31
0.0
12
283.5
22
299.43066
32
0.0
13
283.5001
23
299.43076
33
1.0E-4
0
3DFACE
8
0
10
284.86603
20
298.06464
30
0.0
11
283.5
21
299.43066
31
0.0
12
283.13397
22
299.06464
32
0.0
13
283.13406
23
299.06473
33
1.0E-4
0
3DFACE
8
0
10
284.86603
20
298.06464
30
0.0
11
283.13397
21
299.06464
31
0.0
12
256.1164
22
248.26886
32
0.0
13
256.1165
23
248.26897
33
1.0E-4
0
3DFACE
8
0
10
283.13397
20
299.06464
30
0.0
11
254.38438
21
249.26886
31
0.0
12
254.7504
22
247.90285
32
0.0
13
254.7505
23
247.90295
33
1.0E-4
0
3DFACE
8
0
10
283.13397
20
299.06464
30
0.0
11
254.7504
21
247.90285
31
0.0
12
255.7504
22
247.90285
32
0.0
13
255.7505
23
247.90295
33
1.0E-4
0
3DFACE
8
0
10
283.13397
20
299.06464
30
0.0
11
255.7504
21
247.90285
31
0.0
12
256.1164
22
248.26886
32
0.0
13
256.1165
23
248.26897
33
1.0E-4
0
3DFACE
8
0
10
254.7504
20
247.90285
30
0.0
11
254.38438
21
249.26886
31
0.0
12
254.2504
22
248.76886
32
0.0
13
254.2505
23
248.76897
33
1.0E-4
0
3DFACE
8
0
10
255.93341
20
248.58585
30
0.0
11
255.43341
21
249.45187
31
0.0
12
221.70218
22
229.97714
32
0.0
13
221.70229
23
229.97725
33
1.0E-4
0
3DFACE
8
0
10
221.70218
20
229.97714
30
0.0
11
255.93341
21
248.58585
31
0.0
12
222.20218
22
229.11111
32
0.0
13
222.20229
23
229.11122
33
1.0E-4
0
3DFACE
8
0
10
256.0
20
250.0
30
0.0
11
255.0
21
250.0
31
0.0
12
255.0
22
211.0
32
0.0
13
255.0001
23
211.0001
33
1.0E-4
0
3DFACE
8
0
10
255.0
20
211.0
30
0.0
11
256.0
21
250.0
31
0.0
12
256.0
22
211.0
32
0.0
13
256.0001
23
211.0001
33
1.0E-4
0
3DFACE
8
0
10
313.6156
20
249.26886
30
0.0
11
284.86603
21
299.06464
31
0.0
12
311.8836
22
248.26886
32
0.0
13
311.8837
23
248.26897
33
1.0E-4
0
3DFACE
8
0
10
313.6156
20
249.26886
30
0.0
11
311.8836
21
248.26886
31
0.0
12
312.2496
22
247.90285
32
0.0
13
312.2497
23
247.90295
33
1.0E-4
0
3DFACE
8
0
10
313.6156
20
249.26886
30
0.0
11
312.2496
21
247.90285
31
0.0
12
313.2496
22
247.90285
32
0.0
13
313.2497
23
247.90295
33
1.0E-4
0
3DFACE
8
0
10
313.6156
20
249.26886
30
0.0
11
313.2496
21
247.90285
31
0.0
12
313.7496
22
248.76886
32
0.0
13
313.7497
23
248.76897
33
1.0E-4
0
3DFACE
8
0
10
283.0
20
298.56464
30
0.0
11
283.13397
21
298.06464
31
0.0
12
283.5
22
299.43066
32
0.0
13
283.5001
23
299.43076
33
1.0E-4
0
3DFACE
8
0
10
311.8836
20
248.26886
30
0.0
11
283.5
21
299.43066
31
0.0
12
283.13397
22
298.06464
32
0.0
13
283.13406
23
298.06473
33
1.0E-4
0
3DFACE
8
0
10
283.5
20
299.43066
30
0.0
11
311.8836
21
248.26886
31
0.0
12
284.5
22
299.43066
32
0.0
13
284.5001
23
299.43076
33
1.0E-4
0
3DFACE
8
0
10
284.86603
20
299.06464
30
0.0
11
284.5
21
299.43066
31
0.0
12
311.8836
22
248.26886
32
0.0
13
311.8837
23
248.26897
33
1.0E-4
0
3DFACE
8
0
10
314.0
20
250.0
30
0.0
11
313.0
21
250.0
31
0.0
12
313.0
22
211.0
32
0.0
13
313.0001
23
211.0001
33
1.0E-4
0
3DFACE
8
0
10
313.0
20
211.0
30
0.0
11
314.0
21
250.0
31
0.0
12
314.0
22
211.0
32
0.0
13
314.0001
23
211.0001
33
1.0E-4
0
3DFACE
8
0
10
312.5666
20
249.45187
30
0.0
11
312.0666
21
248.58585
31
0.0
12
345.79782
22
229.11111
32
0.0
13
345.7979
23
229.11122
33
1.0E-4
0
3DFACE
8
0
10
345.79782
20
229.11111
30
0.0
11
312.5666
21
249.45187
31
0.0
12
346.29782
22
229.97714
32
0.0
13
346.2979
23
229.97725
33
1.0E-4
0
3DFACE
8
0
10
417.73206
20
386.68463
30
0.0
11
351.73206
21
501.0
31
0.0
12
414.26794
22
384.68463
32
0.0
13
414.26804
23
384.68472
33
1.0E-4
0
3DFACE
8
0
10
417.73206
20
386.68463
30
0.0
11
414.26794
21
384.68463
31
0.0
12
415.0
22
383.95258
32
0.0
13
415.0001
23
383.95267
33
1.0E-4
0
3DFACE
8
0
10
417.73206
20
386.68463
30
0.0
11
415.0
21
383.95258
31
0.0
12
416.0
22
383.68463
32
0.0
13
416.0001
23
383.68472
33
1.0E-4
0
3DFACE
8
0
10
417.73206
20
386.68463
30
0.0
11
416.0
21
383.68463
31
0.0
12
417.0
22
383.95258
32
0.0
13
417.0001
23
383.95267
33
1.0E-4
0
3DFACE
8
0
10
417.73206
20
386.68463
30
0.0
11
417.0
21
383.95258
31
0.0
12
417.73206
22
384.68463
32
0.0
13
417.73215
23
384.68472
33
1.0E-4
0
3DFACE
8
0
10
417.73206
20
386.68463
30
0.0
11
417.73206
21
384.68463
31
0.0
12
418.0
22
385.68463
32
0.0
13
418.0001
23
385.68472
33
1.0E-4
0
3DFACE
8
0
10
414.26794
20
384.68463
30
0.0
11
351.73206
21
501.0
31
0.0
12
351.0
22
501.73206
32
0.0
13
351.0001
23
501.73215
33
1.0E-4
0
3DFACE
8
0
10
414.26794
20
384.68463
30
0.0
11
351.0
21
501.73206
31
0.0
12
350.0
22
502.0
32
0.0
13
350.0001
23
502.0001
33
1.0E-4
0
3DFACE
8
0
10
414.26794
20
384.68463
30
0.0
11
350.0
21
502.0
31
0.0
12
349.0
22
501.73206
32
0.0
13
349.0001
23
501.73215
33
1.0E-4
0
3DFACE
8
0
10
414.26794
20
384.68463
30
0.0
11
349.0
21
501.73206
31
0.0
12
348.26794
22
501.0
32
0.0
13
348.26804
23
501.0001
33
1.0E-4
0
3DFACE
8
0
10
414.26794
20
384.68463
30
0.0
11
348.26794
21
501.0
31
0.0
12
348.26794
22
499.0
32
0.0
13
348.26804
23
499.0001
33
1.0E-4
0
3DFACE
8
0
10
348.26794
20
499.0
30
0.0
11
348.26794
21
501.0
31
0.0
12
348.0
22
500.0
32
0.0
13
348.0001
23
500.0001
33
1.0E-4
0
3DFACE
8
0
10
414.5
20
385.68463
30
0.0
11
414.59045
21
298.05164
31
0.0
12
414.59045
22
386.19763
32
0.0
13
414.59055
23
386.19772
33
1.0E-4
0
3DFACE
8
0
10
415.25
20
297.26562
30
0.0
11
414.59045
21
386.19763
31
0.0
12
414.59045
22
298.05164
32
0.0
13
414.59055
23
298.05173
33
1.0E-4
0
3DFACE
8
0
10
414.59045
20
386.19763
30
0.0
11
415.25
21
297.26562
31
0.0
12
415.25
22
386.98364
32
0.0
13
415.2501
23
386.98373
33
1.0E-4
0
3DFACE
8
0
10
416.26047
20
297.08743
30
0.0
11
415.25
21
386.98364
31
0.0
12
415.25
22
297.26562
32
0.0
13
415.2501
23
297.26572
33
1.0E-4
0
3DFACE
8
0
10
415.25
20
386.98364
30
0.0
11
416.26047
21
297.08743
31
0.0
12
416.26047
22
387.16183
32
0.0
13
416.26056
23
387.16193
33
1.0E-4
0
3DFACE
8
0
10
417.14905
20
297.60046
30
0.0
11
416.26047
21
387.16183
31
0.0
12
416.26047
22
297.08743
32
0.0
13
416.26056
23
297.08752
33
1.0E-4
0
3DFACE
8
0
10
416.26047
20
387.16183
30
0.0
11
417.14905
21
297.60046
31
0.0
12
417.14905
22
386.6488
32
0.0
13
417.14914
23
386.6489
33
1.0E-4
0
3DFACE
8
0
10
417.5
20
298.56464
30
0.0
11
417.14905
21
386.6488
31
0.0
12
417.14905
22
297.60046
32
0.0
13
417.14914
23
297.60056
33
1.0E-4
0
3DFACE
8
0
10
417.14905
20
386.6488
30
0.0
11
417.5
21
298.56464
31
0.0
12
417.5
22
385.68463
32
0.0
13
417.5001
23
385.68472
33
1.0E-4
0
3DFACE
8
0
10
414.59045
20
298.05164
30
0.0
11
414.5
21
385.68463
31
0.0
12
414.5
22
298.56464
32
0.0
13
414.5001
23
298.56473
33
1.0E-4
0
3DFACE
8
0
10
416.86603
20
298.06464
30
0.0
11
417.0
21
298.56464
31
0.0
12
416.5
22
299.43066
32
0.0
13
416.5001
23
299.43076
33
1.0E-4
0
3DFACE
8
0
10
416.86603
20
298.06464
30
0.0
11
416.5
21
299.43066
31
0.0
12
415.5
22
299.43066
32
0.0
13
415.5001
23
299.43076
33
1.0E-4
0
3DFACE
8
0
10
416.86603
20
298.06464
30
0.0
11
415.5
21
299.43066
31
0.0
12
415.13397
22
299.06464
32
0.0
13
415.13406
23
299.06473
33
1.0E-4
0
3DFACE
8
0
10
416.86603
20
298.06464
30
0.0
11
415.13397
21
299.06464
31
0.0
12
388.1164
22
248.26886
32
0.0
13
388.1165
23
248.26897
33
1.0E-4
0
3DFACE
8
0
10
415.13397
20
299.06464
30
0.0
11
386.3844
21
249.26886
31
0.0
12
386.7504
22
247.90285
32
0.0
13
386.7505
23
247.90295
33
1.0E-4
0
3DFACE
8
0
10
415.13397
20
299.06464
30
0.0
11
386.7504
21
247.90285
31
0.0
12
387.7504
22
247.90285
32
0.0
13
387.7505
23
247.90295
33
1.0E-4
0
3DFACE
8
0
10
415.13397
20
299.06464
30
0.0
11
387.7504
21
247.90285
31
0.0
12
388.1164
22
248.26886
32
0.0
13
388.1165
23
248.26897
33
1.0E-4
0
3DFACE
8
0
10
386.7504
20
247.90285
30
0.0
11
386.3844
21
249.26886
31
0.0
12
386.2504
22
248.76886
32
0.0
13
386.2505
23
248.76897
33
1.0E-4
0
3DFACE
8
0
10
387.9334
20
248.58585
30
0.0
11
387.4334
21
249.45187
31
0.0
12
353.70218
22
229.97714
32
0.0
13
353.70227
23
229.97725
33
1.0E-4
0
3DFACE
8
0
10
353.70218
20
229.97714
30
0.0
11
387.9334
21
248.58585
31
0.0
12
354.20218
22
229.11111
32
0.0
13
354.20227
23
229.11122
33
1.0E-4
0
3DFACE
8
0
10
388.0
20
250.0
30
0.0
11
387.0
21
250.0
31
0.0
12
387.0
22
211.0
32
0.0
13
387.0001
23
211.0001
33
1.0E-4
0
3DFACE
8
0
10
387.0
20
211.0
30
0.0
11
388.0
21
250.0
31
0.0
12
388.0
22
211.0
32
0.0
13
388.0001
23
211.0001
33
1.0E-4
0
3DFACE
8
0
10
445.6156
20
249.26886
30
0.0
11
416.86603
21
299.06464
31
0.0
12
443.8836
22
248.26886
32
0.0
13
443.8837
23
248.26897
33
1.0E-4
0
3DFACE
8
0
10
445.6156
20
249.26886
30
0.0
11
443.8836
21
248.26886
31
0.0
12
444.2496
22
247.90285
32
0.0
13
444.2497
23
247.90295
33
1.0E-4
0
3DFACE
8
0
10
445.6156
20
249.26886
30
0.0
11
444.2496
21
247.90285
31
0.0
12
445.2496
22
247.90285
32
0.0
13
445.2497
23
247.90295
33
1.0E-4
0
3DFACE
8
0
10
445.6156
20
249.26886
30
0.0
11
445.2496
21
247.90285
31
0.0
12
445.7496
22
248.76886
32
0.0
13
445.7497
23
248.76897
33
1.0E-4
0
3DFACE
8
0
10
415.0
20
298.56464
30
0.0
11
415.13397
21
298.06464
31
0.0
12
415.5
22
299.43066
32
0.0
13
415.5001
23
299.43076
33
1.0E-4
0
3DFACE
8
0
10
443.8836
20
248.26886
30
0.0
11
415.5
21
299.43066
31
0.0
12
415.13397
22
298.06464
32
0.0
13
415.13406
23
298.06473
33
1.0E-4
0
3DFACE
8
0
10
415.5
20
299.43066
30
0.0
11
443.8836
21
248.26886
31
0.0
12
416.5
22
299.43066
32
0.0
13
416.5001
23
299.43076
33
1.0E-4
0
3DFACE
8
0
10
416.86603
20
299.06464
30
0.0
11
416.5
21
299.43066
31
0.0
12
443.8836
22
248.26886
32
0.0
13
443.8837
23
248.26897
33
1.0E-4
0
3DFACE
8
0
10
446.0
20
250.0
30
0.0
11
445.0
21
250.0
31
0.0
12
445.0
22
211.0
32
0.0
13
445.0001
23
211.0001
33
1.0E-4
0
3DFACE
8
0
10
445.0
20
211.0
30
0.0
11
446.0
21
250.0
31
0.0
12
446.0
22
211.0
32
0.0
13
446.0001
23
211.0001
33
1.0E-4
0
3DFACE
8
0
10
444.5666
20
249.45187
30
0.0
11
444.0666
21
248.58585
31
0.0
12
477.79782
22
229.11111
32
0.0
13
477.7979
23
229.11122
33
1.0E-4
0
3DFACE
8
0
10
477.79782
20
229.11111
30
0.0
11
444.5666
21
249.45187
31
0.0
12
478.29782
22
229.97714
32
0.0
13
478.2979
23
229.97725
33
1.0E-4
0
3DFACE
8
0
10
490.69812
20
340.82562
30
0.0
11
491.7086
21
340.64743
31
0.0
12
492.19812
22
343.42365
32
0.0
13
492.1982
23
343.42374
33
1.0E-4
0
3DFACE
8
0
10
492.59717
20
341.16046
30
0.0
11
492.19812
21
343.42365
31
0.0
12
491.7086
22
340.64743
32
0.0
13
491.70868
23
340.64752
33
1.0E-4
0
3DFACE
8
0
10
492.19812
20
343.42365
30
0.0
11
492.59717
21
341.16046
31
0.0
12
492.59717
22
343.0888
32
0.0
13
492.59726
23
343.0889
33
1.0E-4
0
3DFACE
8
0
10
492.94812
20
342.12463
30
0.0
11
492.59717
21
343.0888
31
0.0
12
492.59717
22
341.16046
32
0.0
13
492.59726
23
341.16055
33
1.0E-4
0
3DFACE
8
0
10
490.69812
20
340.82562
30
0.0
11
492.19812
21
343.42365
31
0.0
12
416.75
22
386.98364
32
0.0
13
416.7501
23
386.98373
33
1.0E-4
0
3DFACE
8
0
10
490.69812
20
340.82562
30
0.0
11
416.75
21
386.98364
31
0.0
12
416.26047
22
387.16183
32
0.0
13
416.26056
23
387.16193
33
1.0E-4
0
3DFACE
8
0
10
490.69812
20
340.82562
30
0.0
11
416.26047
21
387.16183
31
0.0
12
415.25
22
386.98364
32
0.0
13
415.2501
23
386.98373
33
1.0E-4
0
3DFACE
8
0
10
490.69812
20
340.82562
30
0.0
11
415.25
21
386.98364
31
0.0
12
415.25
22
384.38562
32
0.0
13
415.2501
23
384.3857
33
1.0E-4
0
3DFACE
8
0
10
414.59045
20
386.19763
30
0.0
11
414.59045
21
385.17163
31
0.0
12
415.25
22
384.38562
32
0.0
13
415.2501
23
384.3857
33
1.0E-4
0
3DFACE
8
0
10
414.59045
20
386.19763
30
0.0
11
415.25
21
384.38562
31
0.0
12
415.25
22
386.98364
32
0.0
13
415.2501
23
386.98373
33
1.0E-4
0
3DFACE
8
0
10
521.0638
20
292.82886
30
0.0
11
492.31415
21
342.62463
31
0.0
12
519.3317
22
291.82886
32
0.0
13
519.33185
23
291.82895
33
1.0E-4
0
3DFACE
8
0
10
521.0638
20
292.82886
30
0.0
11
519.3317
21
291.82886
31
0.0
12
519.69775
22
291.46283
32
0.0
13
519.6979
23
291.46292
33
1.0E-4
0
3DFACE
8
0
10
521.0638
20
292.82886
30
0.0
11
519.69775
21
291.46283
31
0.0
12
520.69775
22
291.46283
32
0.0
13
520.6979
23
291.46292
33
1.0E-4
0
3DFACE
8
0
10
521.0638
20
292.82886
30
0.0
11
520.69775
21
291.46283
31
0.0
12
521.19775
22
292.32886
32
0.0
13
521.1979
23
292.32895
33
1.0E-4
0
3DFACE
8
0
10
490.44812
20
342.12463
30
0.0
11
490.5821
21
341.62463
31
0.0
12
490.94812
22
342.99066
32
0.0
13
490.9482
23
342.99075
33
1.0E-4
0
3DFACE
8
0
10
519.3317
20
291.82886
30
0.0
11
490.94812
21
342.99066
31
0.0
12
490.5821
22
341.62463
32
0.0
13
490.58218
23
341.62473
33
1.0E-4
0
3DFACE
8
0
10
490.94812
20
342.99066
30
0.0
11
519.3317
21
291.82886
31
0.0
12
491.94812
22
342.99066
32
0.0
13
491.9482
23
342.99075
33
1.0E-4
0
3DFACE
8
0
10
492.31415
20
342.62463
30
0.0
11
491.94812
21
342.99066
31
0.0
12
519.3317
22
291.82886
32
0.0
13
519.33185
23
291.82895
33
1.0E-4
0
3DFACE
8
0
10
521.0
20
293.0
30
0.0
11
520.0
21
293.0
31
0.0
12
520.0
22
254.0
32
0.0
13
520.0001
23
254.0001
33
1.0E-4
0
3DFACE
8
0
10
520.0
20
254.0
30
0.0
11
521.0
21
293.0
31
0.0
12
521.0
22
254.0
32
0.0
13
521.0001
23
254.0001
33
1.0E-4
0
3DFACE
8
0
10
520.0148
20
293.01187
30
0.0
11
519.5148
21
292.14584
31
0.0
12
553.246
22
272.6711
32
0.0
13
553.2461
23
272.6712
33
1.0E-4
0
3DFACE
8
0
10
553.246
20
272.6711
30
0.0
11
520.0148
21
293.01187
31
0.0
12
553.746
22
273.53714
32
0.0
13
553.7461
23
273.53723
33
1.0E-4
0
3DFACE
8
0
10
490.44812
20
342.12463
30
0.0
11
490.94812
21
341.2586
31
0.0
12
490.94812
22
342.99066
32
0.0
13
490.9482
23
342.99075
33
1.0E-4
0
3DFACE
8
0
10
491.44812
20
341.12463
30
0.0
11
490.94812
21
342.99066
31
0.0
12
490.94812
22
341.2586
32
0.0
13
490.9482
23
341.2587
33
1.0E-4
0
3DFACE
8
0
10
490.94812
20
342.99066
30
0.0
11
491.44812
21
341.12463
31
0.0
12
491.44812
22
343.12463
32
0.0
13
491.4482
23
343.12473
33
1.0E-4
0
3DFACE
8
0
10
548.9473
20
341.12463
30
0.0
11
491.44812
21
343.12463
31
0.0
12
491.44812
22
341.12463
32
0.0
13
491.4482
23
341.12473
33
1.0E-4
0
3DFACE
8
0
10
491.44812
20
343.12463
30
0.0
11
548.9473
21
341.12463
31
0.0
12
548.9473
22
343.12463
32
0.0
13
548.94745
23
343.12473
33
1.0E-4
0
3DFACE
8
0
10
549.4473
20
341.2586
30
0.0
11
548.9473
21
343.12463
31
0.0
12
548.9473
22
341.12463
32
0.0
13
548.94745
23
341.12473
33
1.0E-4
0
3DFACE
8
0
10
548.9473
20
343.12463
30
0.0
11
549.4473
21
341.2586
31
0.0
12
549.4473
22
342.99066
32
0.0
13
549.44745
23
342.99075
33
1.0E-4
0
3DFACE
8
0
10
549.9473
20
342.12463
30
0.0
11
549.4473
21
342.99066
31
0.0
12
549.4473
22
341.2586
32
0.0
13
549.44745
23
341.2587
33
1.0E-4
0
3DFACE
8
0
10
548.76434
20
342.80765
30
0.0
11
548.26434
21
341.94162
31
0.0
12
581.99554
22
322.4669
32
0.0
13
581.99567
23
322.46698
33
1.0E-4
0
3DFACE
8
0
10
581.99554
20
322.4669
30
0.0
11
548.76434
21
342.80765
31
0.0
12
582.49554
22
323.33292
32
0.0
13
582.49567
23
323.333
33
1.0E-4
0
3DFACE
8
0
10
548.26434
20
342.30765
30
0.0
11
548.76434
21
341.44162
31
0.0
12
582.49554
22
360.91635
32
0.0
13
582.49567
23
360.91644
33
1.0E-4
0
3DFACE
8
0
10
582.49554
20
360.91635
30
0.0
11
548.26434
21
342.30765
31
0.0
12
581.99554
22
361.78238
32
0.0
13
581.99567
23
361.78247
33
1.0E-4
0
ENDSEC
0
EOF
