0
SECTION
2
ENTITIES
0
LINE
8
0
10
0.0
20
350.0
30
-606.2178
11
0.0
21
150.0
31
-606.2178
0
LINE
8
0
10
0.0
20
150.0
30
-606.2178
11
-66.0
21
35.68463
31
-606.2178
0
LINE
8
0
10
-66.0
20
35.68463
30
-606.2178
11
-141.44814
21
-7.875366
31
-606.2178
0
LINE
8
0
10
-141.44814
20
-7.875366
30
-606.2178
11
-198.94734
21
-7.875366
31
-606.2178
0
LINE
8
0
10
-198.94734
20
-7.875366
30
-606.2178
11
-231.81256
21
11.099365
31
-606.2178
0
LINE
8
0
10
-198.94734
20
-7.875366
30
-606.2178
11
-231.81256
21
-26.850098
31
-606.2178
0
LINE
8
0
10
-141.44814
20
-7.875366
30
-606.2178
11
-170.19774
21
-57.671143
31
-606.2178
0
LINE
8
0
10
-170.19774
20
-57.671143
30
-606.2178
11
-203.06296
21
-76.645874
31
-606.2178
0
LINE
8
0
10
-170.19774
20
-57.671143
30
-606.2178
11
-170.19774
21
-95.62062
31
-606.2178
0
LINE
8
0
10
-66.0
20
35.68463
30
-606.2178
11
-66.0
21
-51.435364
31
-606.2178
0
LINE
8
0
10
-66.0
20
-51.435364
30
-606.2178
11
-94.7496
21
-101.23114
31
-606.2178
0
LINE
8
0
10
-94.7496
20
-101.23114
30
-606.2178
11
-127.61481
21
-120.20587
31
-606.2178
0
LINE
8
0
10
-94.7496
20
-101.23114
30
-606.2178
11
-94.7496
21
-139.18062
31
-606.2178
0
LINE
8
0
10
-66.0
20
-51.435364
30
-606.2178
11
-37.250397
21
-101.23114
31
-606.2178
0
LINE
8
0
10
-37.250397
20
-101.23114
30
-606.2178
11
-37.250397
21
-139.18062
31
-606.2178
0
LINE
8
0
10
-37.250397
20
-101.23114
30
-606.2178
11
-4.385193
21
-120.20587
31
-606.2178
0
LINE
8
0
10
0.0
20
150.0
30
-606.2178
11
66.0
21
35.68463
31
-606.2178
0
LINE
8
0
10
66.0
20
35.68463
30
-606.2178
11
66.0
21
-51.435364
31
-606.2178
0
LINE
8
0
10
66.0
20
-51.435364
30
-606.2178
11
37.250397
21
-101.23114
31
-606.2178
0
LINE
8
0
10
37.250397
20
-101.23114
30
-606.2178
11
4.385193
21
-120.20587
31
-606.2178
0
LINE
8
0
10
37.250397
20
-101.23114
30
-606.2178
11
37.250397
21
-139.18062
31
-606.2178
0
LINE
8
0
10
66.0
20
-51.435364
30
-606.2178
11
94.7496
21
-101.23114
31
-606.2178
0
LINE
8
0
10
94.7496
20
-101.23114
30
-606.2178
11
94.7496
21
-139.18062
31
-606.2178
0
LINE
8
0
10
94.7496
20
-101.23114
30
-606.2178
11
127.61481
21
-120.20587
31
-606.2178
0
LINE
8
0
10
66.0
20
35.68463
30
-606.2178
11
141.44812
21
-7.875366
31
-606.2178
0
LINE
8
0
10
141.44812
20
-7.875366
30
-606.2178
11
170.19775
21
-57.671143
31
-606.2178
0
LINE
8
0
10
170.19775
20
-57.671143
30
-606.2178
11
170.19775
21
-95.62062
31
-606.2178
0
LINE
8
0
10
170.19775
20
-57.671143
30
-606.2178
11
203.06299
21
-76.645874
31
-606.2178
0
LINE
8
0
10
141.44812
20
-7.875366
30
-606.2178
11
198.94733
21
-7.875366
31
-606.2178
0
LINE
8
0
10
198.94733
20
-7.875366
30
-606.2178
11
231.81256
21
-26.850098
31
-606.2178
0
LINE
8
0
10
198.94733
20
-7.875366
30
-606.2178
11
231.81256
21
11.099365
31
-606.2178
0
ENDSEC
0
EOF
